<?xml version="1.0" encoding="utf-8"?>
<!-- Generator: Adobe Illustrator 25.4.1, SVG Export Plug-In . SVG Version: 6.00 Build 0)  -->
<svg version="1.1" id="Layer_1" xmlns="http://www.w3.org/2000/svg" xmlns:xlink="http://www.w3.org/1999/xlink" x="0px" y="0px"
	 viewBox="0 0 20 20" style="enable-background:new 0 0 20 20;" xml:space="preserve">
<style type="text/css">
	.st0{fill:#CE4338;}
</style>
<g>
	<path class="st0" d="M5.66,11.22l3.61,3.61c0.4,0.4,1.05,0.4,1.44,0l3.61-3.61c0.4-0.4,0.4-1.05,0-1.44l0,0
		c-0.4-0.4-1.05-0.4-1.44,0l-1.87,1.87V1.85c0-0.56-0.46-1.02-1.02-1.02h0c-0.56,0-1.02,0.46-1.02,1.02v9.79L7.1,9.77
		c-0.4-0.4-1.05-0.4-1.44,0l0,0C5.26,10.17,5.26,10.82,5.66,11.22z"/>
	<path class="st0" d="M17.14,14.1v2.04c0,0.56-0.46,1.02-1.02,1.02H3.86c-0.56,0-1.02-0.46-1.02-1.02V14.1
		c0-0.56-0.46-1.02-1.02-1.02h0c-0.56,0-1.02,0.46-1.02,1.02v2.04c0,1.69,1.38,3.06,3.06,3.06h12.26c1.69,0,3.06-1.38,3.06-3.06
		V14.1c0-0.56-0.46-1.02-1.02-1.02h0C17.6,13.08,17.14,13.54,17.14,14.1z"/>
</g>
</svg>
