<svg id="Layer_2" data-name="Layer 2" xmlns="http://www.w3.org/2000/svg" width="76.008" height="76.008" viewBox="0 0 76.008 76.008">
  <defs>
    <style>
      .cls-1 {
        fill: #ce4338;
      }
    </style>
  </defs>
  <g id="_1" data-name="1">
    <path id="Path_20" data-name="Path 20" class="cls-1" d="M38,76.008a38,38,0,1,1,38-38,38,38,0,0,1-38,38ZM38,3.167A34.837,34.837,0,1,0,72.841,38,34.837,34.837,0,0,0,38,3.167Z"/>
    <path id="Path_21" data-name="Path 21" class="cls-1" d="M26.334,32.668a6.334,6.334,0,1,1,6.334-6.334A6.334,6.334,0,0,1,26.334,32.668Zm0-9.5A3.167,3.167,0,1,0,29.5,26.334,3.167,3.167,0,0,0,26.334,23.167Z" transform="translate(11.67 11.67)"/>
    <rect id="Rectangle_16" data-name="Rectangle 16" class="cls-1" width="7" height="4" transform="translate(6 36.008)"/>
    <rect id="Rectangle_17" data-name="Rectangle 17" class="cls-1" width="7" height="4" transform="translate(63 36.008)"/>
    <rect id="Rectangle_18" data-name="Rectangle 18" class="cls-1" width="4" height="7" transform="translate(36 6.008)"/>
    <rect id="Rectangle_19" data-name="Rectangle 19" class="cls-1" width="4" height="7" transform="translate(36 63.008)"/>
    <rect id="Rectangle_20" data-name="Rectangle 20" class="cls-1" width="6.334" height="3.167" transform="matrix(0.866, -0.5, 0.5, 0.866, 9.781, 52.464)"/>
    <rect id="Rectangle_21" data-name="Rectangle 21" class="cls-1" width="6.334" height="3.167" transform="matrix(0.866, -0.5, 0.5, 0.866, 59.152, 23.968)"/>
    <rect id="Rectangle_22" data-name="Rectangle 22" class="cls-1" width="3.167" height="6.334" transform="translate(20.791 11.372) rotate(-30)"/>
    <rect id="Rectangle_23" data-name="Rectangle 23" class="cls-1" width="3.167" height="6.334" transform="translate(49.307 60.75) rotate(-30)"/>
    <rect id="Rectangle_24" data-name="Rectangle 24" class="cls-1" width="6.334" height="3.167" transform="matrix(0.5, -0.866, 0.866, 0.5, 20.793, 64.638)"/>
    <rect id="Rectangle_25" data-name="Rectangle 25" class="cls-1" width="24.513" height="3.167" transform="matrix(0.5, -0.866, 0.866, 0.5, 38.99, 33.115)"/>
    <rect id="Rectangle_26" data-name="Rectangle 26" class="cls-1" width="3.167" height="6.334" transform="translate(9.791 23.535) rotate(-60)"/>
    <rect id="Rectangle_27" data-name="Rectangle 27" class="cls-1" width="3.167" height="6.334" transform="translate(59.147 52.034) rotate(-60)"/>
    <rect id="Rectangle_28" data-name="Rectangle 28" class="cls-1" width="3.167" height="12.747" transform="translate(41.334 41.758) rotate(-60)"/>
  </g>
</svg>
