<svg xmlns="http://www.w3.org/2000/svg" width="117.734" height="85.481" viewBox="0 0 117.734 85.481">
  <defs>
    <style>
      .cls-1 {
        fill: #ce4338;
      }
    </style>
  </defs>
  <g id="Shoe" transform="translate(13.359 -189.394) rotate(22)">
    <path id="Path_19" data-name="Path 19" class="cls-1" d="M182.737,206.529c-.152-1.713-1-4.671-5.67-6.546l-53.743-24.893a1.634,1.634,0,0,0-2.305,1.258l-1.5,10.839a13.891,13.891,0,0,0,.722,6.73L87.89,176.112l-3.663-2.139a1.635,1.635,0,0,0-2.188.512A43.824,43.824,0,0,0,77.05,186.3a40.8,40.8,0,0,0,1.6,26.673v8.014a1.634,1.634,0,0,0,1.634,1.634h27.7a1.634,1.634,0,0,0,1.634-1.634v-6.594h.607a19.382,19.382,0,0,1,10.83,3.324l6.574,4.412a1.635,1.635,0,0,0,.911.277h45.286a9.136,9.136,0,0,0,8.948-9.293v-6.249a1.64,1.64,0,0,0-.034-.333ZM179.5,213.11a5.867,5.867,0,0,1-5.68,6.025H129.035L122.874,215a22.64,22.64,0,0,0-12.651-3.879h-2.24a1.634,1.634,0,0,0-1.634,1.634c0,.027,0,.054,0,.081s0,.054,0,.081v6.432H81.917v-4.96h19.752a1.634,1.634,0,1,0,0-3.268H81.415a36.881,36.881,0,0,1-1.238-23.87,44.042,44.042,0,0,1,3.812-9.634l2.272,1.327.036.02L130.1,203.078l.054.028a51.594,51.594,0,0,0,21.389,5.5h16.08a1.634,1.634,0,1,0,0-3.268H151.638a48.342,48.342,0,0,1-19.987-5.14l-4.811-2.648a10.582,10.582,0,0,1-4.09-9.917l1.2-8.654,51.781,23.984.083.036c2.653,1.055,3.687,2.3,3.687,4.454Z" transform="translate(0)"/>
  </g>
</svg>
