<svg xmlns="http://www.w3.org/2000/svg" width="70.726" height="71.338" viewBox="0 0 70.726 71.338">
  <defs>
    <style>
      .cls-1 {
        fill: #ce4338;
      }
    </style>
  </defs>
  <g id="reshot-icon-discount-or-promotion-PDS98K34ZC" transform="translate(-1.414 -1.927)">
    <path id="Path_31" data-name="Path 31" class="cls-1" d="M28.545,11.838,9.007,16.721a1.727,1.727,0,1,0,.836,3.349l19.538-4.883a1.727,1.727,0,0,0-.836-3.35Z" transform="translate(15.321 24.21)"/>
    <path id="Path_32" data-name="Path 32" class="cls-1" d="M15.386,18.994a5.18,5.18,0,0,0,3.664-8.84,5.3,5.3,0,0,0-7.327,0,5.18,5.18,0,0,0,3.664,8.84Zm-1.219-6.4a1.727,1.727,0,1,1,0,2.441A1.727,1.727,0,0,1,14.167,12.6Z" transform="translate(21.57 16.581)"/>
    <path id="Path_33" data-name="Path 33" class="cls-1" d="M10.309,15.847a5.18,5.18,0,1,0,7.327,0A5.18,5.18,0,0,0,10.309,15.847Zm4.883,4.883a1.761,1.761,0,0,1-2.441,0,1.727,1.727,0,0,1,1.222-2.945,1.706,1.706,0,0,1,1.219.5A1.727,1.727,0,0,1,15.192,20.729Z" transform="translate(18.101 30.423)"/>
    <path id="Path_34" data-name="Path 34" class="cls-1" d="M72.132,10.264A8.6,8.6,0,0,0,70.2,4.542a7.942,7.942,0,0,0-6.33-2.6,8.833,8.833,0,0,0-6.958,2.99A11.7,11.7,0,0,0,54.66,9.086H32.788a1.727,1.727,0,0,0-1.222.5L2.933,38.227a5.18,5.18,0,0,0,0,7.327L29.124,71.746a5.18,5.18,0,0,0,7.327,0L65.088,43.113a1.727,1.727,0,0,0,.5-1.222v-21.3a10.774,10.774,0,0,0,6.54-10.328ZM62.139,41.176,34.01,69.3a1.727,1.727,0,0,1-2.445,0L5.374,43.113a1.727,1.727,0,0,1,0-2.445L33.5,12.54H53.9a28.463,28.463,0,0,0-.048,6.8,1.727,1.727,0,1,0,3.422-.452,24.731,24.731,0,0,1,.135-6.347h3a1.727,1.727,0,0,1,1.727,1.727Zm3.453-24.351V14.266a5.18,5.18,0,0,0-5.18-5.18H58.379A7.317,7.317,0,0,1,59.511,7.2a5.442,5.442,0,0,1,4.354-1.809A4.665,4.665,0,0,1,67.581,6.8a5.342,5.342,0,0,1,1.1,3.453A8.239,8.239,0,0,1,65.592,16.825Z" transform="translate(0 0)"/>
  </g>
</svg>
